# xmcd
#
# Track frame offsets:
#	183
#	21013
#	32923
#	46070
#	58303
#	73883
#	89353
#	101715
#	114838
#	126458
#	141105
#	155443
#	172653
#	186965
#	202673
#	216735
#	229475
#	243675
#	256180
#	269773
#
# Disc length: 3740 seconds
#
# Revision: 0
# Processed by: cddbd v1.5.1PL2 Copyright (c) Steve Scherf et al.
# Submitted via: dBpowerAMP V4.0
#
DISCID=2e0e9a14
DTITLE=Various Artist - Special Collection
DYEAR=1900
DGENRE=
TTITLE0=Sweet Lorraine - 
TTITLE1=Straighten Up And Fly Right - 
TTITLE2=Nature Boy - 
TTITLE3=Dance Ballerina ance - 
TTITLE4=Mona Lisa - 
TTITLE5=Too Young - 
TTITLE6=Love Letters - 
TTITLE7=Smile - 
TTITLE8=Around The World - Nat King Cole
TTITLE9=For All We Know - 
TTITLE10=When I fall In Love - 
TTITLE11=The Very Thought Of You - Nat King Cole
TTITLE12=On The Street Where You Live - 
TTITLE13=Unforgettable - 
TTITLE14=Its All In The Game - 
TTITLE15=Ramblin Rose - 
TTITLE16=Portrait of Jennie - 
TTITLE17=Let There Be Love - 
TTITLE18=Somewhere Along The Way - 
TTITLE19=Those Lazy Hazy Crazy Days Of Summer - 
EXTD=Nat King Cole-Special Collection
EXTT0=
EXTT1=
EXTT2=
EXTT3=
EXTT4=
EXTT5=
EXTT6=
EXTT7=
EXTT8=
EXTT9=
EXTT10=
EXTT11=
EXTT12=
EXTT13=
EXTT14=
EXTT15=
EXTT16=
EXTT17=
EXTT18=
EXTT19=
PLAYORDER=
